<svg xmlns="http://www.w3.org/2000/svg" width="40" height="38" viewBox="0 0 20 18" fill="none">
            <mask id="mask0_39_8300" style="mask-type:luminance" maskUnits="userSpaceOnUse" x="0" y="0" width="20" height="18">
                <path d="M0 0H19.43V18H0V0Z" fill="white"/>
            </mask>
            <g mask="url(#mask0_39_8300)">
                <path d="M0 9C0 4.02944 4.34956 0 9.71501 0C15.0805 0 19.43 4.02944 19.43 9C19.43 13.9706 15.0805 18 9.71501 18C4.34956 18 0 13.9706 0 9ZM0.710185 9C0.710185 13.6072 4.74178 17.3421 9.71501 17.3421C14.6882 17.3421 18.7198 13.6072 18.7198 9C18.7198 4.39279 14.6882 0.657916 9.71501 0.657916C4.74178 0.657916 0.710185 4.39279 0.710185 9Z" fill="#4748EE"/>
                <path d="M9.62857 13.3705H6.49221C6.05807 13.3705 5.7657 13.3418 5.61509 13.2843C5.46447 13.2269 5.38916 13.1325 5.38916 13.0012V5.23254C5.38916 5.01914 5.48662 4.86525 5.68153 4.77086C5.87645 4.67647 6.21312 4.62927 6.69155 4.62927H9.68173C11.3828 4.62927 12.5567 4.93911 13.2035 5.5588C13.8503 6.17848 14.1737 7.30499 14.1737 8.93833C14.1737 10.5717 13.837 11.7187 13.1636 12.3794C12.4903 13.0401 11.3119 13.3705 9.62857 13.3705ZM9.52226 6.4637C9.30962 6.4637 9.16786 6.48012 9.09699 6.51295V11.4868L9.602 11.5361C9.86779 11.5361 10.0693 11.3391 10.2067 10.9451C10.344 10.5512 10.4127 9.86991 10.4127 8.9014C10.4127 7.93288 10.3418 7.28447 10.2 6.95616C10.0583 6.62786 9.83235 6.4637 9.52226 6.4637Z" fill="#4748EE"/>
            </g>
        </svg>