<svg version="1.1" xmlns="http://www.w3.org/2000/svg" xmlns:xlink="http://www.w3.org/1999/xlink" x="0px" y="0px"
	 viewBox="0 0 3710 3710" style="enable-background:new 0 0 3710 3710;" xml:space="preserve">
<g id="Background">
	<g>
		<g>
			<rect style="fill:#FFFFFF;" width="3710" height="3710"/>
		</g>
	</g>
</g>
<g id="Illustration">
	<g>
		<linearGradient id="SVGID_1_" gradientUnits="userSpaceOnUse" x1="3427.0249" y1="3619.0376" x2="1369.4365" y2="1398.1486">
			<stop  offset="0" style="stop-color:#DAE3FE"/>
			<stop  offset="1" style="stop-color:#E9EFFD"/>
		</linearGradient>
		<path style="fill:url(#SVGID_1_);" d="M3140.286,2353.436c-282.728,660.843-1029.037,944.69-1613.782,896.294
			c-159.659-13.214-480.897-39.802-731.723-276.999c-481.693-455.522-407.507-1407.69,53.611-1968.273
			c59.382-72.191,470.419-555.867,1110.943-549.393c468.957,4.74,798.113,269.648,838.137,302.65
			c50.561,41.691,162.079,140.762,262.583,297.931C3296.205,1424.939,3316.963,1940.475,3140.286,2353.436z"/>
		<g>
			
				<ellipse transform="matrix(0.0439 -0.999 0.999 0.0439 -319.2154 3978.5637)" style="fill:#91B3FA;" cx="1918.921" cy="2156.05" rx="1047.104" ry="1130.246"/>
			<ellipse style="opacity:0.28;fill:#FFFFFF;" cx="1857.749" cy="2080.503" rx="886.893" ry="837.831"/>
			<g style="opacity:0.68;">
				<path style="fill:#FFFFFF;" d="M2207.66,2161.108c-0.271,184.68-12.937,369.737-45.482,551.802
					c-8.24,45.479-17.792,90.74-29.173,135.571c-11.416,44.813-24.596,89.238-40.733,132.672
					c-16.272,43.321-35.159,86.019-60.769,125.044c-12.906,19.37-27.544,37.929-45.609,53.197
					c-9.03,7.584-18.947,14.312-29.854,19.24c-10.885,4.896-22.782,7.996-34.856,8.211c-12.058,0.352-24.135-2.008-35.235-6.478
					c-11.143-4.427-21.301-10.851-30.548-18.185c-18.497-14.792-33.457-33.148-46.594-52.365
					c-26.065-38.746-45.208-81.358-61.65-124.611c-16.341-43.36-29.651-87.749-41.166-132.535
					c-11.495-44.801-21.143-90.042-29.45-135.506c-16.58-90.948-27.888-182.77-35.519-274.845
					c-7.576-92.09-11.373-184.474-11.84-276.872c-0.227-46.193,1.034-92.378,2.676-138.535c1.73-46.156,4.272-92.282,7.67-138.346
					c6.833-92.116,17.037-184.027,32.208-275.183c7.612-45.567,16.488-90.942,27.164-135.915
					c10.703-44.958,23.142-89.559,38.571-133.193c7.755-21.797,16.234-43.361,25.903-64.418
					c9.655-21.052,20.46-41.646,33.158-61.115c12.728-19.384,27.359-37.887,45.578-52.698c9.108-7.341,19.144-13.728,30.137-18.055
					c10.95-4.383,22.831-6.603,34.65-6.153c11.826,0.337,23.484,3.285,34.24,8.022c10.771,4.76,20.668,11.233,29.755,18.571
					c18.174,14.769,33.216,32.826,46.561,51.787c26.53,38.188,46.531,80.302,63.856,123.152
					c17.198,42.968,31.399,87.049,43.767,131.585c12.325,44.557,22.762,89.611,31.793,134.93
					C2192.609,1791.316,2207.127,1976.395,2207.66,2161.108z M2193.991,2161.108c0.169-92.021-3.329-184.066-10.976-275.768
					c-7.54-91.699-18.961-183.134-35.978-273.556c-8.497-45.205-18.394-90.154-30.169-134.605
					c-11.817-44.429-25.457-88.404-42.064-131.242c-16.725-42.716-36.122-84.684-61.86-122.6
					c-12.938-18.825-27.532-36.703-45.045-51.249c-8.753-7.229-18.256-13.582-28.54-18.26c-10.273-4.622-21.338-7.652-32.591-7.947
					c-11.246-0.356-22.477,1.906-32.88,6.187c-10.44,4.239-20.023,10.475-28.76,17.675c-17.48,14.523-31.643,32.79-43.953,52.002
					c-12.287,19.294-22.747,39.758-32.075,60.703c-9.344,20.949-17.521,42.428-24.982,64.146
					c-14.842,43.481-26.728,87.964-36.887,132.807c-10.133,44.861-18.476,90.129-25.559,135.587
					c-14.116,90.938-23.283,182.622-29.086,274.474c-5.862,91.864-7.886,183.937-7.72,275.969
					c-0.243,92.017,2.831,184.06,9.67,275.828c6.893,91.752,17.452,183.274,33.254,273.897
					c7.918,45.302,17.168,90.372,28.249,134.978c11.099,44.59,23.979,88.761,39.831,131.824
					c15.939,42.948,34.577,85.202,59.766,123.26c12.677,18.87,27.101,36.767,44.582,50.956c8.735,7.04,18.242,13.132,28.519,17.302
					c10.246,4.182,21.239,6.506,32.253,6.134c11.011-0.284,21.86-3.191,31.932-7.812c10.087-4.653,19.391-11.05,27.936-18.345
					c17.103-14.678,31.219-32.801,43.673-51.833c24.748-38.358,43.118-80.707,58.877-123.727
					c15.639-43.142,28.376-87.351,39.363-131.968c10.956-44.636,20.095-89.728,27.934-135.041
					c15.695-90.64,26.123-182.172,33.056-273.924C2190.783,2345.2,2194.027,2253.148,2193.991,2161.108z"/>
				<path style="fill:#FFFFFF;" d="M2673.552,2161.108c-0.639,118.929-15.924,237.91-47.761,352.599
					c-32.393,114.425-81.224,224.506-147.519,323.336c-33.151,49.361-70.708,95.824-112.674,137.979
					c-41.948,42.143-88.339,79.962-138.698,111.657c-50.404,31.573-104.844,56.847-161.832,73.994
					c-56.954,17.188-116.411,26.155-175.921,26.214c-59.51-0.005-118.983-8.918-175.968-26.059
					c-57.018-17.1-111.502-42.334-161.958-73.875c-50.41-31.662-96.871-69.448-138.886-111.573
					c-42.035-42.136-79.667-88.589-112.893-137.951c-66.428-98.843-115.362-208.971-147.906-323.453
					c-16.019-57.346-27.923-115.824-35.81-174.824c-7.845-59.009-11.786-118.516-12.056-178.044
					c0.308-59.529,4.286-119.031,12.167-178.03c7.924-58.989,19.873-117.451,35.931-174.775
					c32.626-114.435,81.635-224.489,148.106-323.23c33.24-49.316,70.877-95.718,112.907-137.798
					c42.016-42.061,88.443-79.812,138.845-111.374c50.441-31.46,104.912-56.506,161.831-73.6
					c56.882-17.165,116.26-26.117,175.692-26.176c59.432,0.108,118.794,9.111,175.649,26.319
					c56.89,17.139,111.315,42.236,161.703,73.729c50.347,31.598,96.708,69.38,138.655,111.459
					c41.961,42.099,79.523,88.51,112.688,137.826c66.337,98.727,115.246,208.733,147.718,323.113
					C2657.466,1923.217,2672.832,2042.178,2673.552,2161.108z M2657.881,2161.108c-0.172-117.579-14.818-235.284-45.842-348.785
					c-31.196-113.325-78.167-222.731-142.832-321.121c-32.315-49.144-69.017-95.466-110.125-137.573
					c-41.124-42.041-86.547-80.078-136.225-111.692c-49.738-31.437-103.45-56.742-159.769-73.857
					c-56.291-17.128-115.063-26.132-173.942-26.327c-58.879,0.246-117.636,9.299-173.899,26.47
					c-56.29,17.161-109.955,42.515-159.641,73.986c-49.624,31.65-94.98,69.718-136.035,111.777
					c-41.037,42.126-77.666,88.457-109.907,137.602c-64.531,98.377-111.401,207.734-142.443,321.003
					c-15.465,56.699-26.662,114.514-34.249,172.759c-7.605,58.252-11.358,116.996-11.489,175.757
					c0.168,58.761,3.958,117.5,11.599,175.742c7.625,58.234,18.867,116.032,34.37,172.708
					c31.122,113.224,78.07,222.507,142.644,320.781c32.253,49.099,68.887,95.379,109.92,137.449
					c41.054,41.995,86.378,80.028,135.993,111.578c49.671,31.39,103.322,56.556,159.514,73.711
					c56.161,17.195,114.821,26.289,173.622,26.587c58.802-0.244,117.478-9.283,173.669-26.431
					c56.222-17.108,109.917-42.234,159.64-73.592c49.667-31.518,95.058-69.517,136.182-111.495
					c41.103-42.051,77.811-88.322,110.138-137.42c64.708-98.288,111.758-207.619,143.031-320.898
					C2642.902,2396.371,2657.629,2278.686,2657.881,2161.108z"/>
				<path style="fill:#FFFFFF;" d="M973.808,1755.204l235.567-1.903l235.567-1.078l471.133-0.87l471.134,0.958l235.567,1.178
					l235.567,2.054c0.382,0.004,0.688,0.316,0.685,0.698c-0.003,0.377-0.309,0.682-0.685,0.685l-235.567,2.054l-235.567,1.178
					l-471.134,0.958l-471.133-0.87l-235.567-1.078l-235.567-1.903c-0.569-0.005-1.026-0.47-1.022-1.039
					C972.791,1755.663,973.247,1755.208,973.808,1755.204z"/>
				<path style="fill:#FFFFFF;" d="M1247.094,1360.649c55.748-0.883,111.497-1.262,167.245-1.903l167.246-1.078
					c55.749-0.459,111.497-0.41,167.246-0.552l167.245-0.318l334.491,0.958l167.245,1.178c55.749,0.699,111.497,1.108,167.246,2.055
					c0.382,0.006,0.686,0.321,0.679,0.703c-0.006,0.373-0.309,0.673-0.679,0.68c-55.749,0.947-111.497,1.355-167.246,2.055
					l-167.245,1.178l-334.491,0.958l-167.245-0.318c-55.749-0.142-111.497-0.092-167.246-0.552l-167.246-1.078
					c-55.748-0.641-111.497-1.02-167.245-1.903c-0.569-0.009-1.023-0.478-1.014-1.047
					C1246.089,1361.106,1246.54,1360.659,1247.094,1360.649z"/>
				<path style="fill:#FFFFFF;" d="M891.946,2149.758l256.032-1.897l256.033-1.085l512.064-0.87l512.064,0.958l256.033,1.179
					l256.032,2.053c0.383,0.003,0.689,0.315,0.687,0.697c-0.003,0.379-0.309,0.683-0.687,0.687l-256.032,2.053l-256.033,1.179
					l-512.064,0.958l-512.064-0.87l-256.033-1.085l-256.032-1.896c-0.569-0.004-1.026-0.469-1.023-1.038
					C890.928,2150.217,891.384,2149.762,891.946,2149.758z"/>
				<path style="fill:#FFFFFF;" d="M973.808,2544.312l235.567-1.903l235.567-1.078l471.133-0.871l471.134,0.958l235.567,1.177
					l235.567,2.054c0.382,0.004,0.688,0.316,0.685,0.698c-0.003,0.378-0.309,0.682-0.685,0.686l-235.567,2.055l-235.567,1.178
					l-471.134,0.958l-471.133-0.87l-235.567-1.078l-235.567-1.903c-0.569-0.004-1.026-0.469-1.022-1.039
					C972.791,2544.771,973.247,2544.317,973.808,2544.312z"/>
				<path style="fill:#FFFFFF;" d="M2618.764,2943.509H1280.802c-1.997,0-3.612-1.617-3.612-3.612c0-1.994,1.615-3.612,3.612-3.612
					h1337.962c1.996,0,3.612,1.617,3.612,3.612C2622.376,2941.892,2620.76,2943.509,2618.764,2943.509z"/>
			</g>
		</g>
		<g>
			
				<linearGradient id="SVGID_00000024714514353270811370000003598054759625568418_" gradientUnits="userSpaceOnUse" x1="798.7446" y1="996.5466" x2="677.1124" y2="1827.6942">
				<stop  offset="0" style="stop-color:#FF928E"/>
				<stop  offset="1" style="stop-color:#FE7062"/>
			</linearGradient>
			<path style="fill:url(#SVGID_00000024714514353270811370000003598054759625568418_);" d="M985.503,1420.426l-92.824,84.656
				c-7.219,6.584-10.736,16.299-9.405,25.979l17.118,124.461c3.351,24.374-22.7,42.01-44.086,29.844l-109.197-62.119
				c-8.495-4.831-18.82-5.175-27.613-0.917l-113.081,54.739c-22.143,10.721-46.969-8.606-42.009-32.704l25.337-123.05
				c1.969-9.569-0.895-19.495-7.662-26.544l-87.003-90.63c-17.038-17.748-6.329-47.33,18.122-50.058l124.857-13.931
				c9.711-1.083,18.265-6.875,22.879-15.488l59.307-110.751c11.617-21.69,43.059-20.645,53.208,1.767l51.832,114.441
				c4.032,8.9,12.183,15.246,21.8,16.971l123.658,22.183C994.957,1373.617,1003.681,1403.844,985.503,1420.426z"/>
			<path style="opacity:0.77;fill:#FFFFFF;" d="M725.737,1591.045c-6.531,0.753-12.837,2.589-18.75,5.453l-73.849,35.744
				c-7.763,3.758-16.808,2.801-23.617-2.501c-6.802-5.294-9.944-13.83-8.209-22.273l16.545-80.363
				c3.876-18.825-1.757-38.345-15.067-52.214l-56.824-59.19c-5.97-6.217-7.855-15.117-4.923-23.226
				c2.946-8.107,10.09-13.737,18.655-14.696l41.664-4.649l0.708,6.338l-41.664,4.649c-6.237,0.694-11.212,4.668-13.364,10.53
				c-2.131,5.896-0.815,12.112,3.528,16.637l56.823,59.189c14.768,15.386,21.016,37.037,16.716,57.92l-16.542,80.362
				c-1.265,6.141,0.931,12.104,5.878,15.957c4.945,3.852,11.266,4.52,16.912,1.787l73.849-35.744
				c6.559-3.175,13.557-5.211,20.795-6.048L725.737,1591.045z"/>
			<path style="opacity:0.77;fill:#FFFFFF;" d="M864.261,1628.573c-1.675,3.714-4.372,6.969-7.914,9.367
				c-7.142,4.835-16.231,5.187-23.727,0.925l-54.561-31.036l3.157-5.547l54.561,31.036c5.448,3.102,11.8,2.855,16.992-0.661
				c5.195-3.516,7.785-9.322,6.924-15.537l-11.173-81.274c-2.878-20.87,4.933-42.478,20.519-56.686l60.621-55.287
				c4.628-4.23,6.349-10.353,4.623-16.371c-1.739-6.025-6.462-10.283-12.634-11.388l-80.765-14.491
				c-20.989-3.767-38.767-17.61-47.553-37.027l-33.862-74.741c-2.589-5.716-7.87-9.25-14.138-9.458
				c-6.271-0.208-11.775,2.97-14.732,8.496l-38.735,72.34c-4.007,7.478-9.357,14.007-15.913,19.403l-4.052-4.922
				c5.905-4.866,10.732-10.752,14.338-17.496l38.734-72.335c4.07-7.601,11.949-12.148,20.567-11.861
				c8.618,0.286,16.185,5.344,19.737,13.198l33.86,74.743c7.926,17.507,23.955,29.988,42.871,33.38l80.766,14.49
				c8.485,1.52,15.244,7.612,17.638,15.898c2.386,8.286-0.087,17.042-6.452,22.854l-60.622,55.286
				c-14.055,12.813-21.096,32.284-18.493,51.105l11.172,81.276C866.606,1620.557,865.961,1624.802,864.261,1628.573z"/>
			
				<rect x="601.64" y="1371.732" transform="matrix(0.9938 -0.1108 0.1108 0.9938 -148.5107 76.4745)" style="opacity:0.77;fill:#FFFFFF;" width="24.841" height="6.379"/>
		</g>
		<g>
			
				<linearGradient id="SVGID_00000038396038572063838030000015724709183318392980_" gradientUnits="userSpaceOnUse" x1="1273.6829" y1="548.5111" x2="989.8771" y2="1372.8975">
				<stop  offset="0" style="stop-color:#FF928E"/>
				<stop  offset="1" style="stop-color:#FE7062"/>
			</linearGradient>
			<path style="fill:url(#SVGID_00000038396038572063838030000015724709183318392980_);" d="M1365.138,1026.328l-95.031,82.171
				c-7.391,6.391-11.163,16.009-10.089,25.721l13.82,124.87c2.705,24.454-23.803,41.395-44.86,28.668l-107.516-64.985
				c-8.365-5.054-18.677-5.671-27.579-1.647l-114.489,51.729c-22.419,10.131-46.725-9.846-41.129-33.804l28.583-122.337
				c2.222-9.513-0.379-19.512-6.957-26.737l-84.575-92.899c-16.562-18.193-5.075-47.481,19.439-49.561l125.182-10.623
				c9.736-0.825,18.441-6.389,23.281-14.877l62.216-109.144c12.186-21.375,43.59-19.499,53.143,3.174l48.786,115.772
				c3.795,9.003,11.776,15.563,21.344,17.541l123.028,25.446C1375.827,979.786,1383.749,1010.233,1365.138,1026.328z"/>
			<path style="opacity:0.77;fill:#FFFFFF;" d="M1100.951,1190.016c-6.549,0.58-12.901,2.248-18.888,4.955l-74.768,33.779
				c-7.859,3.551-16.876,2.355-23.542-3.125c-6.66-5.472-9.575-14.089-7.617-22.483l18.665-79.898
				c4.372-18.716-0.742-38.378-13.681-52.594l-55.238-60.672c-5.803-6.373-7.452-15.32-4.307-23.349
				c3.16-8.027,10.45-13.465,19.037-14.197l41.772-3.545l0.54,6.354l-41.773,3.546c-6.253,0.529-11.331,4.37-13.638,10.173
				c-2.287,5.837-1.136,12.087,3.087,16.725l55.237,60.672c14.356,15.771,20.029,37.58,15.178,58.341l-18.661,79.897
				c-1.427,6.105,0.611,12.124,5.454,16.107c4.842,3.982,11.142,4.816,16.859,2.234l74.769-33.778c6.64-3,13.69-4.85,20.948-5.496
				L1100.951,1190.016z"/>
			<path style="opacity:0.77;fill:#FFFFFF;" d="M1238.433,1231.196c-1.772,3.668-4.555,6.851-8.159,9.154
				c-7.268,4.645-16.363,4.756-23.744,0.297l-53.721-32.468l3.303-5.462l53.721,32.468c5.364,3.245,11.72,3.167,17.004-0.211
				c5.286-3.378,8.029-9.113,7.332-15.348l-9.02-81.541c-2.324-20.938,6.055-42.333,22.011-56.123l62.062-53.664
				c4.738-4.107,6.621-10.181,5.054-16.243c-1.579-6.069-6.188-10.451-12.328-11.718l-80.354-16.623
				c-20.882-4.321-38.288-18.629-46.557-38.272l-31.874-75.611c-2.437-5.782-7.623-9.455-13.882-9.828
				c-6.263-0.373-11.85,2.657-14.952,8.103l-40.635,71.29c-4.203,7.37-9.725,13.755-16.42,18.976l-3.92-5.028
				c6.031-4.708,11.013-10.465,14.796-17.11l40.634-71.285c4.27-7.491,12.266-11.827,20.873-11.313
				c8.608,0.514,16.038,5.77,19.381,13.716l31.871,75.612c7.46,17.711,23.154,30.611,41.974,34.503l80.354,16.621
				c8.442,1.744,15.038,8.012,17.211,16.359c2.166,8.346-0.537,17.033-7.054,22.675l-62.063,53.663
				c-14.388,12.437-21.943,31.715-19.838,50.598l9.018,81.543C1240.989,1223.244,1240.233,1227.471,1238.433,1231.196z"/>
			
				<rect x="982.609" y="967.825" transform="matrix(0.9964 -0.0844 0.0844 0.9964 -78.4373 87.4864)" style="opacity:0.77;fill:#FFFFFF;" width="24.841" height="6.379"/>
		</g>
		<g>
			
				<linearGradient id="SVGID_00000015351698391421842380000006835202303433253017_" gradientUnits="userSpaceOnUse" x1="1753.7472" y1="370.5197" x2="1483.4565" y2="1194.9067">
				<stop  offset="0" style="stop-color:#FF928E"/>
				<stop  offset="1" style="stop-color:#FE7062"/>
			</linearGradient>
			<path style="fill:url(#SVGID_00000015351698391421842380000006835202303433253017_);" d="M1863.258,811.58l-92.845,84.632
				c-7.221,6.583-10.74,16.296-9.411,25.976l17.086,124.465c3.345,24.375-22.711,42.005-44.093,29.833l-109.181-62.147
				c-8.494-4.833-18.819-5.18-27.612-0.924l-113.095,54.71c-22.146,10.715-46.967-8.618-42-32.715l25.368-123.044
				c1.972-9.568-0.89-19.495-7.656-26.546l-86.979-90.652c-17.033-17.753-6.317-47.332,18.134-50.053l124.86-13.899
				c9.711-1.08,18.267-6.87,22.883-15.482l59.336-110.736c11.622-21.687,43.064-20.634,53.208,1.781l51.802,114.454
				c4.03,8.901,12.179,15.249,21.796,16.976l123.653,22.215C1872.724,764.774,1881.441,795.003,1863.258,811.58z"/>
			<path style="opacity:0.77;fill:#FFFFFF;" d="M1603.449,982.132c-6.531,0.751-12.838,2.585-18.751,5.448l-73.858,35.725
				c-7.764,3.756-16.809,2.797-23.616-2.508c-6.801-5.296-9.94-13.833-8.204-22.275l16.565-80.359
				c3.881-18.824-1.747-38.345-15.054-52.218l-56.809-59.205c-5.968-6.218-7.851-15.119-4.917-23.228
				c2.948-8.107,10.093-13.734,18.658-14.691l41.665-4.638l0.707,6.338l-41.665,4.639c-6.237,0.693-11.213,4.665-13.367,10.526
				c-2.133,5.895-0.818,12.112,3.524,16.638l56.807,59.204c14.764,15.39,21.006,37.043,16.701,57.924l-16.562,80.358
				c-1.267,6.14,0.928,12.104,5.874,15.958c4.944,3.854,11.264,4.523,16.911,1.792l73.858-35.725
				c6.559-3.173,13.558-5.207,20.796-6.043L1603.449,982.132z"/>
			<path style="opacity:0.77;fill:#FFFFFF;" d="M1741.964,1019.696c-1.676,3.713-4.374,6.968-7.917,9.365
				c-7.144,4.833-16.233,5.183-23.728,0.919l-54.553-31.049l3.158-5.546l54.553,31.049c5.447,3.104,11.799,2.859,16.993-0.656
				c5.196-3.515,7.788-9.32,6.928-15.535l-11.152-81.276c-2.872-20.87,4.944-42.477,20.534-56.68l60.635-55.272
				c4.629-4.229,6.352-10.351,4.627-16.37c-1.737-6.025-6.46-10.285-12.631-11.391l-80.761-14.512
				c-20.989-3.773-38.763-17.62-47.543-37.039l-33.843-74.75c-2.587-5.716-7.868-9.252-14.135-9.461
				c-6.271-0.209-11.776,2.966-14.735,8.492l-38.753,72.33c-4.009,7.477-9.361,14.005-15.918,19.399l-4.05-4.923
				c5.906-4.864,10.735-10.75,14.343-17.492l38.753-72.325c4.072-7.6,11.952-12.145,20.57-11.856
				c8.618,0.288,16.184,5.348,19.734,13.204l33.841,74.751c7.922,17.509,23.948,29.994,42.863,33.391l80.762,14.51
				c8.485,1.523,15.242,7.616,17.633,15.903c2.384,8.286-0.091,17.042-6.458,22.852l-60.636,55.27
				c-14.058,12.809-21.105,32.279-18.506,51.1l11.151,81.279C1744.31,1011.68,1743.665,1015.925,1741.964,1019.696z"/>
			
				<rect x="1479.407" y="762.791" transform="matrix(0.9939 -0.1105 0.1105 0.9939 -75.5104 169.5517)" style="opacity:0.77;fill:#FFFFFF;" width="24.841" height="6.379"/>
		</g>
		<path style="fill:#91B3FA;" d="M2918.613,934.91l-91.062,86.548c-7.082,6.732-10.398,16.516-8.868,26.167l19.676,124.082
			c3.852,24.3-21.83,42.469-43.462,30.745l-110.453-59.858c-8.593-4.655-18.922-4.786-27.626-0.348l-111.93,57.055
			c-21.918,11.174-47.137-7.638-42.673-31.833l22.799-123.546c1.772-9.608-1.296-19.472-8.207-26.381l-88.85-88.82
			c-17.399-17.394-7.302-47.19,17.087-50.42l124.543-16.498c9.687-1.282,18.12-7.25,22.555-15.955l57.015-111.948
			c11.168-21.925,42.625-21.527,53.233,0.671l54.176,113.35c4.215,8.815,12.494,14.992,22.145,16.518l124.089,19.633
			C2927.102,887.917,2936.447,917.958,2918.613,934.91z"/>
		<g>
			
				<linearGradient id="SVGID_00000000937959438461069540000009137537253436005816_" gradientUnits="userSpaceOnUse" x1="3328.9705" y1="1165.4978" x2="2396.4658" y2="3064.2937">
				<stop  offset="0" style="stop-color:#FF928E"/>
				<stop  offset="1" style="stop-color:#FE7062"/>
			</linearGradient>
			<path style="fill:url(#SVGID_00000000937959438461069540000009137537253436005816_);" d="M2224.013,3032.831l527.29-1010.176
				h-108.032c-19.921,0-30.877-23.161-18.241-38.562l561.985-684.946c24.356-29.686,72.471-10.858,70.209,27.475l-39.504,669.793
				c-2.262,38.343-36.261,66.921-74.421,62.553l-75.32-8.62L2544.8,3183.364c-13.619,29.495-43.143,48.381-75.631,48.381h-181.326
				L2224.013,3032.831z"/>
			
				<linearGradient id="SVGID_00000165209778663025660260000015384418125425239183_" gradientUnits="userSpaceOnUse" x1="2711.5818" y1="3543.8391" x2="1961.5469" y2="2504.5056">
				<stop  offset="0" style="stop-color:#FF928E"/>
				<stop  offset="1" style="stop-color:#FE7062"/>
			</linearGradient>
			<path style="fill:url(#SVGID_00000165209778663025660260000015384418125425239183_);" d="M1788.058,2324.349l372.255,826.92
				c22.049,48.979,70.771,80.476,124.483,80.476h191.906c25.462,0,48.922-13.813,61.272-36.078l6.825-12.303l0,0
				c-20.619,0-39.498-11.56-48.87-29.925l-495.987-971.813L1788.058,2324.349z"/>
			
				<linearGradient id="SVGID_00000070826311378385544850000010214645124113626799_" gradientUnits="userSpaceOnUse" x1="1986.9426" y1="1980.7478" x2="1162.5532" y2="3264.6348">
				<stop  offset="0" style="stop-color:#FF928E"/>
				<stop  offset="1" style="stop-color:#FE7062"/>
			</linearGradient>
			<path style="fill:url(#SVGID_00000070826311378385544850000010214645124113626799_);" d="M2050.041,2279.785L2050.041,2279.785
				c-37.328-29.477-91.869-20.811-118.223,18.784l-547.32,822.308c-43.836,65.86-117.708,105.431-196.822,105.431h-77.014
				l-62.677-180.552c0,0,508.819-780.181,639.964-898.2c0,0,130.602-117.708,259.373-28.712
				c34.021,23.512,59.85,57.069,75.627,95.296L2050.041,2279.785z"/>
			
				<linearGradient id="SVGID_00000137116778824636085900000012148269606443398804_" gradientUnits="userSpaceOnUse" x1="1325.4548" y1="3258.3103" x2="376.9286" y2="2279.4319">
				<stop  offset="0" style="stop-color:#FF928E"/>
				<stop  offset="1" style="stop-color:#FE7062"/>
			</linearGradient>
			<path style="fill:url(#SVGID_00000137116778824636085900000012148269606443398804_);" d="M452.699,2560.165
				c0,0,91.617-114.517,269.153-132.332c0,0,84.321,28.728,252.308,329.739c167.987,301.011,279.492,438.279,410.338,363.304
				l-10.833,17.986c-35.7,59.275-99.84,95.52-169.036,95.52h-72.367c-79.676,0-148.866-122.723-195.394-187.402
				C806.124,2865.228,533.015,2588.381,452.699,2560.165z"/>
			<path style="opacity:0.79;fill:#FFFFFF;" d="M3193.815,1538.255c-0.191,0-0.383-0.01-0.577-0.033
				c-2.781-0.313-4.781-2.824-4.464-5.606l3.705-32.704c0.317-2.781,2.821-4.784,5.606-4.464c2.781,0.314,4.781,2.824,4.464,5.606
				l-3.705,32.704C3198.55,1536.345,3196.359,1538.255,3193.815,1538.255z"/>
			<path style="opacity:0.79;fill:#FFFFFF;" d="M2724.685,1951.09c-1.079,0-2.168-0.343-3.088-1.052
				c-2.217-1.706-2.633-4.89-0.924-7.107l464.058-602.982c5.438-7.057,14.29-9.473,22.542-6.12
				c8.262,3.339,12.95,11.218,11.947,20.071l-8.189,72.278c-0.317,2.781-2.811,4.768-5.606,4.464
				c-2.781-0.313-4.781-2.824-4.464-5.606l8.189-72.278c0.577-5.104-2.554-8.272-5.675-9.535c-3.131-1.264-7.575-1.165-10.713,2.91
				l-464.058,602.982C2727.708,1950.41,2726.203,1951.09,2724.685,1951.09z"/>
			<path style="opacity:0.79;fill:#FFFFFF;" d="M1671.912,2583.219c-0.977,0-1.963-0.28-2.831-0.868
				c-2.319-1.564-2.933-4.715-1.366-7.034l240.002-355.75c8.575-12.716,22.763-19.628,38.129-18.454
				c15.296,1.161,28.346,10.129,34.908,23.997c1.198,2.531,0.119,5.55-2.412,6.747c-2.524,1.204-5.553,0.119-6.747-2.412
				c-4.985-10.532-14.897-17.345-26.518-18.226c-11.614-0.844-22.44,4.362-28.959,14.016l-240.002,355.75
				C1675.139,2582.437,1673.538,2583.219,1671.912,2583.219z"/>
			<path style="opacity:0.79;fill:#FFFFFF;" d="M1609.546,2675.667c-0.977,0-1.963-0.281-2.831-0.868
				c-2.319-1.564-2.933-4.715-1.366-7.034l15.389-22.813c1.564-2.323,4.722-2.93,7.035-1.366c2.319,1.564,2.933,4.715,1.366,7.034
				l-15.389,22.813C1612.772,2674.885,1611.172,2675.667,1609.546,2675.667z"/>
		</g>
		<g>
			
				<linearGradient id="SVGID_00000073693084994606187110000016509163791858149507_" gradientUnits="userSpaceOnUse" x1="1130.2278" y1="1729.7701" x2="874.829" y2="2199.0403" gradientTransform="matrix(0.9934 0.1148 -0.1148 0.9934 2253.0542 258.555)">
				<stop  offset="0" style="stop-color:#FEBBBA"/>
				<stop  offset="1" style="stop-color:#FF928E"/>
			</linearGradient>
			<path style="fill:url(#SVGID_00000073693084994606187110000016509163791858149507_);" d="M3038.662,2228.325l-50.344,85.615
				c0,0,42.461,28.364,75.16,29.455l26.374-74.865L3038.662,2228.325z"/>
			<g>
				
					<linearGradient id="SVGID_00000078024503900759572930000005110377471478981300_" gradientUnits="userSpaceOnUse" x1="2852.7495" y1="2284.052" x2="3116.2837" y2="2091.4692">
					<stop  offset="0" style="stop-color:#FEBBBA"/>
					<stop  offset="1" style="stop-color:#FF928E"/>
				</linearGradient>
				<path style="fill:url(#SVGID_00000078024503900759572930000005110377471478981300_);" d="M2706.129,2398.651l15.409,12.399
					c30.707-35.06,60.278-49.055,86.865-51.187c-8.013-21.917-18.485-43.161-31.453-63.724
					C2725.358,2331.127,2706.129,2398.651,2706.129,2398.651z"/>
				
					<linearGradient id="SVGID_00000174595576650892732870000002289289266842190993_" gradientUnits="userSpaceOnUse" x1="2873.4885" y1="2312.4329" x2="3137.0227" y2="2119.8499">
					<stop  offset="0" style="stop-color:#FEBBBA"/>
					<stop  offset="1" style="stop-color:#FF928E"/>
				</linearGradient>
				<path style="fill:url(#SVGID_00000174595576650892732870000002289289266842190993_);" d="M2708.727,2390.833
					c0,0-24.192,26.682-31.334,35.102c-7.142,8.42-19.135,60.791-10.807,60.951c8.328,0.16,17.533,9.816,22.101,1.752
					c4.568-8.064,9.812-30.21,9.812-30.21s2.09,21.437,8,16.752c5.91-4.686,9.1-19.553,8.283-28.622
					c-0.817-9.068,6.757-35.508,6.757-35.508L2708.727,2390.833z"/>
				
					<linearGradient id="SVGID_00000008116278771161726950000003763309494305362852_" gradientUnits="userSpaceOnUse" x1="-798.8269" y1="656.0781" x2="11.4077" y2="-54.9441" gradientTransform="matrix(-0.969 0.2471 -0.2471 -0.969 700.8043 5458.8389)">
					<stop  offset="0" style="stop-color:#4F52FF"/>
					<stop  offset="1" style="stop-color:#4042E2"/>
				</linearGradient>
				<path style="fill:url(#SVGID_00000008116278771161726950000003763309494305362852_);" d="M2808.403,2359.864
					c66.501-5.334,117.319,42.573,117.319,42.573c7.266,4.688,12.141,29.781,20.441,33.223
					c-24.303-28.413,32.324-101.71,42.156-126.152c-81.733-54.043-172.358-39.824-211.368-13.368
					C2789.917,2316.703,2800.389,2337.947,2808.403,2359.864z"/>
			</g>
			<g>
				
					<linearGradient id="SVGID_00000029042905012797171480000009406740093354435990_" gradientUnits="userSpaceOnUse" x1="930.5923" y1="3172.0266" x2="1050.8579" y2="3172.0266" gradientTransform="matrix(1 0.0012 -0.0012 1 1932.7039 31.9994)">
					<stop  offset="0" style="stop-color:#09005D"/>
					<stop  offset="1" style="stop-color:#1A0F91"/>
				</linearGradient>
				<path style="fill:url(#SVGID_00000029042905012797171480000009406740093354435990_);" d="M2872.005,3175.892
					c0,0-12.773,19.803-12.532,47.006c0.057,6.407,5.415,11.518,11.823,11.525l103.459,0.122c4.844,0.006,6.818-6.217,2.857-9.006
					c-19.561-13.771-58.01-39.498-85.829-49.625L2872.005,3175.892z"/>
				
					<linearGradient id="SVGID_00000081614002109064679770000000301859701190827185_" gradientUnits="userSpaceOnUse" x1="932.4175" y1="3123.8306" x2="963.3332" y2="3123.8306" gradientTransform="matrix(1 0.0012 -0.0012 1 1932.7039 31.9994)">
					<stop  offset="0" style="stop-color:#FEBBBA"/>
					<stop  offset="1" style="stop-color:#FF928E"/>
				</linearGradient>
				<path style="fill:url(#SVGID_00000081614002109064679770000000301859701190827185_);" d="M2861.391,3141.761l7.99,39.027
					c0.894,4.365,5.159,7.304,9.509,6.339c2.645-0.587,5.765-1.714,9.1-3.793c3.169-1.976,4.779-5.742,4.136-9.422l-8.257-47.279
					L2861.391,3141.761z"/>
			</g>
			<g>
				
					<linearGradient id="SVGID_00000026856536196234631140000005616831344283869569_" gradientUnits="userSpaceOnUse" x1="1126.2654" y1="3084.2246" x2="1246.5332" y2="3084.2246" gradientTransform="matrix(0.8461 0.0434 -0.0552 1.0767 1912.2269 -158.1056)">
					<stop  offset="0" style="stop-color:#09005D"/>
					<stop  offset="1" style="stop-color:#1A0F91"/>
				</linearGradient>
				<path style="fill:url(#SVGID_00000026856536196234631140000005616831344283869569_);" d="M2707.087,3180.589
					c0,0-11.882,20.786-13.153,50.088c-0.299,6.902,3.958,12.63,9.38,12.908l87.538,4.488c4.099,0.21,6.107-6.407,2.906-9.577
					c-15.806-15.652-46.946-44.973-69.937-57.049L2707.087,3180.589z"/>
				
					<linearGradient id="SVGID_00000062182942927126443680000017607745502087811737_" gradientUnits="userSpaceOnUse" x1="784.1321" y1="3054.5515" x2="815.0467" y2="3054.5515" gradientTransform="matrix(0.9987 0.0512 -0.0512 0.9987 2072.3662 75.0756)">
					<stop  offset="0" style="stop-color:#FEBBBA"/>
					<stop  offset="1" style="stop-color:#FF928E"/>
				</linearGradient>
				<path style="fill:url(#SVGID_00000062182942927126443680000017607745502087811737_);" d="M2699.864,3150.635l6.028,39.377
					c0.674,4.405,4.787,7.554,9.18,6.807c2.671-0.454,5.843-1.423,9.278-3.333c3.264-1.815,5.06-5.496,4.602-9.203l-5.882-47.633
					L2699.864,3150.635z"/>
			</g>
			
				<linearGradient id="SVGID_00000023972973400982316840000009717804867584454272_" gradientUnits="userSpaceOnUse" x1="760.9263" y1="2546.9976" x2="971.8686" y2="2546.9976" gradientTransform="matrix(0.9934 0.1148 -0.1148 0.9934 2253.0542 258.555)">
				<stop  offset="0" style="stop-color:#09005D"/>
				<stop  offset="1" style="stop-color:#1A0F91"/>
			</linearGradient>
			<path style="fill:url(#SVGID_00000023972973400982316840000009717804867584454272_);" d="M2784.916,2583.163
				c0,0-30.586,21.264-39.214,50.103c-8.627,28.839-51.783,540.241-51.783,540.241s28.068,7.017,43.378,0
				c0,0,59.893-338.343,81.087-408.617c0,0,30.466,329.532,42.492,389.828c0,0,26.365,6.344,35.577,2.252
				c0,0,30.48-419.078,16.782-495.794L2784.916,2583.163z"/>
			
				<linearGradient id="SVGID_00000175310404359124250960000006529456280041524657_" gradientUnits="userSpaceOnUse" x1="3321.7471" y1="1973.8538" x2="2787.9231" y2="2794.8601">
				<stop  offset="0" style="stop-color:#4F52FF"/>
				<stop  offset="1" style="stop-color:#4042E2"/>
			</linearGradient>
			<polygon style="fill:url(#SVGID_00000175310404359124250960000006529456280041524657_);" points="2824.169,2758.469 
				2819.461,2757.394 2830.127,2710.599 2856.035,2692.831 2858.771,2696.817 2834.423,2713.512 			"/>
			
				<linearGradient id="SVGID_00000078750035621849170020000008229143352574278314_" gradientUnits="userSpaceOnUse" x1="3259.0449" y1="87.2202" x2="4069.2705" y2="-623.794" gradientTransform="matrix(0.9934 0.1148 -0.1148 0.9934 2253.0542 258.555)">
				<stop  offset="0" style="stop-color:#4F52FF"/>
				<stop  offset="1" style="stop-color:#4042E2"/>
			</linearGradient>
			<path style="fill:url(#SVGID_00000078750035621849170020000008229143352574278314_);" d="M3105.736,2374.45
				c-39.414-37.311-100.776-60.373-138.882-71.93c-19.458-5.901-40.328,2.894-49.558,21.011
				c-26.758,52.52-98.784,188.879-112.382,212.173c-11.156,19.112-22.647,37.708-29.926,49.324
				c-4.348,6.939-2.306,16.08,4.614,20.459c36.041,22.809,102.314,51.561,129.219,62.899c5.918,2.494,12.548-1.399,13.285-7.778
				c0.625-5.411,2.71-10.551,6.03-14.867l125.759-163.536c0.222,0.312,0.443,0.601,0.665,0.91
				C3072.464,2463.788,3118.304,2409.663,3105.736,2374.45z"/>
			<g>
				
					<linearGradient id="SVGID_00000123433459718443870710000003226791017159525542_" gradientUnits="userSpaceOnUse" x1="636.8291" y1="4426.4004" x2="530.569" y2="4566.9741" gradientTransform="matrix(0.8778 -0.4791 0.4791 0.8778 406.8825 -1392.9866)">
					<stop  offset="0" style="stop-color:#FEBBBA"/>
					<stop  offset="1" style="stop-color:#FF928E"/>
				</linearGradient>
				<path style="fill:url(#SVGID_00000123433459718443870710000003226791017159525542_);" d="M3104.592,2176.874
					c0.671,1.23,14.969,92.748,14.969,92.748l-52.429,7.053l-26.438-84.727C3040.693,2191.948,3093.355,2156.286,3104.592,2176.874z
					"/>
				
					<linearGradient id="SVGID_00000147178883878933861880000005229689160817905568_" gradientUnits="userSpaceOnUse" x1="6959.5669" y1="237.3344" x2="6707.856" y2="404.5291" gradientTransform="matrix(0.8778 -0.4791 0.4791 0.8778 406.8825 -1392.9866)">
					<stop  offset="0" style="stop-color:#8D55D1"/>
					<stop  offset="0.9964" style="stop-color:#1C2873"/>
				</linearGradient>
				<path style="fill:url(#SVGID_00000147178883878933861880000005229689160817905568_);" d="M3058.458,2206.409l10.425,45.691
					c0.134,0.586,0.339,1.137,0.627,1.665c1.758,3.231,8.621,13.906,19.114,6.218c9.521-6.976,18.314-13.2,25.821-13.647
					c3.371-0.2,6.338,2.185,6.858,5.522c1.297,8.315,3.873,27.107,3.62,43.775c-0.051,3.382-2.709,6.137-6.083,6.383
					c-10.166,0.74-31.651,1.699-49.116-1.578c-2.367-0.444-4.301-2.118-5.045-4.408c-3.627-11.164-14.776-45.056-19.344-54.019
					c-4.287-8.414-17.036-9.665-22.427-9.809c-1.767-0.047-3.423-0.81-4.609-2.12c-4.195-4.632-11.873-16.106,2.071-27.168
					c2.918-2.315,3.336-6.546,0.933-9.392c-4.784-5.667-9.489-15.28,0.736-25.347c10.393-10.232,22.183-7.05,29.224-3.518
					c2.847,1.428,6.234,0.546,8.165-1.987c1.099-1.442,2.839-2.429,5.593-1.868c3.712,0.756,7.226-2.009,7.593-5.779
					c0.706-7.243,4.349-16.076,17.339-18.529c23.05-4.354,34.44,18.745,33.961,34.944c-0.48,16.198-25.739,19.498-40.05,16.747
					c-10.88-2.091-20.287,7.846-24.171,12.729C3058.462,2202.462,3058.018,2204.482,3058.458,2206.409z"/>
				
					<linearGradient id="SVGID_00000132071105209038824390000013318296559297862801_" gradientUnits="userSpaceOnUse" x1="481.1988" y1="4537.7236" x2="566.4292" y2="4450.2793" gradientTransform="matrix(0.8778 -0.4791 0.4791 0.8778 406.8825 -1392.9866)">
					<stop  offset="0" style="stop-color:#FEBBBA"/>
					<stop  offset="1" style="stop-color:#FF928E"/>
				</linearGradient>
				<path style="fill:url(#SVGID_00000132071105209038824390000013318296559297862801_);" d="M3049.296,2258.61
					c0,0-0.376-28.261-11.801-30.964c-11.426-2.703-23.801,5.513-14.091,22.474
					C3035.482,2271.217,3049.296,2258.61,3049.296,2258.61z"/>
			</g>
		</g>
		<g>
			
				<linearGradient id="SVGID_00000089561553700949671450000012209450238438871730_" gradientUnits="userSpaceOnUse" x1="8087.8716" y1="2086.3413" x2="7726.6968" y2="2292.4949" gradientTransform="matrix(-1 0 0 1 9316.4092 0)">
				<stop  offset="0" style="stop-color:#FEBBBA"/>
				<stop  offset="1" style="stop-color:#FF928E"/>
			</linearGradient>
			<path style="fill:url(#SVGID_00000089561553700949671450000012209450238438871730_);" d="M1297.634,2430.517
				c0.426-0.164,229.516-401.354,260.472-439.11c5.208-6.349,13.268-9.583,21.424-8.612l63.942,7.62l75.12,162.51l-125.146-72.883
				c12.383,85.643-148.384,212.921-203.521,259.363c-5.596,4.713-6.055,13.155-1.001,18.445l22.012,23.042
				c-36.138,36.631-77.839,60.151-124.904,71.03L1297.634,2430.517z"/>
			
				<linearGradient id="SVGID_00000095300454998612716270000012417134601972469647_" gradientUnits="userSpaceOnUse" x1="1079.3042" y1="1131.0187" x2="1096.1976" y2="1580.3765" gradientTransform="matrix(0.8974 -0.4412 0.4412 0.8974 21.1297 2161.1482)">
				<stop  offset="0" style="stop-color:#09005D"/>
				<stop  offset="1" style="stop-color:#1A0F91"/>
			</linearGradient>
			<path style="fill:url(#SVGID_00000095300454998612716270000012417134601972469647_);" d="M1398.203,2368.457
				c0,0,14.048,4.538,18.805,17.051c2.275,5.987-0.177,12.767-5.384,16.497c-23.133,16.573-99.437,70.08-134.65,80.559
				c-2.886,0.859-5.632-1.752-4.983-4.693c1.807-8.18,7.652-24.516,26.483-48.428l-1.689,3.417
				c-2.138,4.325,2.571,8.828,6.773,6.456C1327.109,2426.019,1375.08,2396.92,1398.203,2368.457z"/>
			
				<linearGradient id="SVGID_00000022548330104140766590000008540926484768059574_" gradientUnits="userSpaceOnUse" x1="8038.7471" y1="2145.8511" x2="9274.5127" y2="1372.2429" gradientTransform="matrix(-1 0 0 1 9316.4092 0)">
				<stop  offset="0" style="stop-color:#FEBBBA"/>
				<stop  offset="1" style="stop-color:#FF928E"/>
			</linearGradient>
			<path style="fill:url(#SVGID_00000022548330104140766590000008540926484768059574_);" d="M1386.866,2528.983
				c0.384-0.246,34.755-83.058,35.139-83.303c31.514-191.871,108.402-356.194,131.078-399.433
				c3.815-7.272,11.054-12.071,19.238-12.769l64.161-5.478l106.453,143.945l-137.307-46.049
				c29.459,81.365-102.224,238.544-146.821,295.184c-4.526,5.748-3.267,14.108,2.752,18.266l26.22,18.111
				c-27.977,43.186-64.054,74.659-107.945,94.838L1386.866,2528.983z"/>
			
				<linearGradient id="SVGID_00000123404044928004581330000006851876877662952325_" gradientUnits="userSpaceOnUse" x1="1561.0437" y1="1632.1555" x2="1577.9371" y2="2081.5144" gradientTransform="matrix(0.7895 -0.6137 0.6137 0.7895 38.7187 3191.1018)">
				<stop  offset="0" style="stop-color:#09005D"/>
				<stop  offset="1" style="stop-color:#1A0F91"/>
			</linearGradient>
			<path style="fill:url(#SVGID_00000123404044928004581330000006851876877662952325_);" d="M1472.795,2447.854
				c0,0,14.676,1.601,21.866,12.892c3.44,5.403,2.41,12.539-1.933,17.245c-19.3,20.911-83.197,88.754-115.561,106.143
				c-2.653,1.425-5.871-0.576-5.83-3.588c0.114-8.376,2.532-25.557,16.134-52.786l-0.963,3.688
				c-1.218,4.668,4.304,8.125,7.939,4.952C1414.821,2518.613,1455.91,2480.408,1472.795,2447.854z"/>
			<g>
				
					<linearGradient id="SVGID_00000069368057003022436350000002267586670142566566_" gradientUnits="userSpaceOnUse" x1="-177.7437" y1="1869.3799" x2="-622.6087" y2="2673.5588" gradientTransform="matrix(-1 0 0 1 1484.7087 0)">
					<stop  offset="0" style="stop-color:#09005D"/>
					<stop  offset="1" style="stop-color:#1A0F91"/>
				</linearGradient>
				<path style="fill:url(#SVGID_00000069368057003022436350000002267586670142566566_);" d="M1936.815,1997.682
					c0,0,58.043,86.332,62.806,125.712c4.763,39.38-16.05,52.999-76.801,58.021c-180.784,14.945-269.904-39.236-269.904-39.236
					c-12.367-78.852-21.167-98.912-124.453-141.785c0,0,130.639,10.371,156.93,0.169
					C1711.684,1990.359,1936.815,1997.682,1936.815,1997.682z"/>
			</g>
			<g>
				
					<linearGradient id="SVGID_00000000189481790942555350000012756281665305397945_" gradientUnits="userSpaceOnUse" x1="1788.299" y1="1887.9264" x2="2266.7239" y2="1298.5631">
					<stop  offset="0" style="stop-color:#4F52FF"/>
					<stop  offset="1" style="stop-color:#4042E2"/>
				</linearGradient>
				<path style="fill:url(#SVGID_00000000189481790942555350000012756281665305397945_);" d="M1779.844,1986.254
					c0,0-67.591-64.361-100.862-106.989c-17.985-23.043-23.633-53.378-15.315-81.4c15.19-51.176,42.185-104.18,44.647-112.43
					c3.774-12.645,79.561-12.119,79.561-12.119s149.134,96.79,207.729,260.744l-65.806,20.487c0,0-38.939-65.327-77.413-106.861
					c0,0,66.574,87.946,68.918,123.949L1779.844,1986.254z"/>
				
					<linearGradient id="SVGID_00000127026281733536664090000018325280371009694127_" gradientUnits="userSpaceOnUse" x1="842.093" y1="1774.8511" x2="817.5536" y2="1617.3909" gradientTransform="matrix(1 0 0 1 919.9458 0)">
					<stop  offset="0" style="stop-color:#FEBBBA"/>
					<stop  offset="1" style="stop-color:#FF928E"/>
				</linearGradient>
				<path style="fill:url(#SVGID_00000127026281733536664090000018325280371009694127_);" d="M1699.148,1614.765
					c0.792,2.629,20.572,68.205,22.12,69.566c1.547,1.361,43.38,3.611,63.071-9.846l-40.19-88.906L1699.148,1614.765z"/>
				
					<linearGradient id="SVGID_00000008856226326850737390000005341184926613364656_" gradientUnits="userSpaceOnUse" x1="2251.7466" y1="-569.4005" x2="2410.3188" y2="-461.6911" gradientTransform="matrix(0.723 -0.6909 0.6909 0.723 399.1148 3572.7656)">
					<stop  offset="0" style="stop-color:#FEBBBA"/>
					<stop  offset="1" style="stop-color:#FF928E"/>
				</linearGradient>
				<path style="fill:url(#SVGID_00000008856226326850737390000005341184926613364656_);" d="M1644.746,1541.105
					c0,0-14.084,32.529,2.463,81.986c16.547,49.456,43.587,53.753,60.712,41.527c17.124-12.226,39.329-34.073,42.09-78.873
					C1752.771,1540.944,1664.145,1499.961,1644.746,1541.105z"/>
				
					<linearGradient id="SVGID_00000051356361184091268640000002500742515635209116_" gradientUnits="userSpaceOnUse" x1="2528.491" y1="-771.746" x2="2262.5186" y2="-495.0275" gradientTransform="matrix(0.723 -0.6909 0.6909 0.723 399.1148 3572.7656)">
					<stop  offset="0" style="stop-color:#09005D"/>
					<stop  offset="1" style="stop-color:#1A0F91"/>
				</linearGradient>
				<path style="fill:url(#SVGID_00000051356361184091268640000002500742515635209116_);" d="M1716.594,1582.83
					c0,0-29.882-66.934-74.699-25.239l-3.458,17.229c0,0-42.68-12.159-28.654-50.834c14.027-38.676,65.032-64.912,110.681-39.844
					c45.649,25.067,61.165,54.595,58.711,89.802c-2.453,35.208-28.841,23.16-28.841,23.16s-5.078-25.885-17.475-30.484
					c-12.396-4.599-12.131,14.994-12.131,14.994L1716.594,1582.83z"/>
				
					<linearGradient id="SVGID_00000033332629716057197070000013478762053249586849_" gradientUnits="userSpaceOnUse" x1="2261.2512" y1="-583.3911" x2="2419.8225" y2="-475.6823" gradientTransform="matrix(0.723 -0.6909 0.6909 0.723 399.1148 3572.7656)">
					<stop  offset="0" style="stop-color:#FEBBBA"/>
					<stop  offset="1" style="stop-color:#FF928E"/>
				</linearGradient>
				<path style="fill:url(#SVGID_00000033332629716057197070000013478762053249586849_);" d="M1726.87,1583.647
					c0,0-15.563-34.318,6.236-35.559c21.799-1.24,12.93,33.081,8.585,45.604L1726.87,1583.647z"/>
				
					<linearGradient id="SVGID_00000016775893483360930460000014814330250848475783_" gradientUnits="userSpaceOnUse" x1="955.3616" y1="1975.609" x2="1315.1462" y2="1975.609" gradientTransform="matrix(1 0 0 1 919.9458 0)">
					<stop  offset="0" style="stop-color:#FEBBBA"/>
					<stop  offset="1" style="stop-color:#FF928E"/>
				</linearGradient>
				<path style="fill:url(#SVGID_00000016775893483360930460000014814330250848475783_);" d="M1651.062,2011.652l50.788-55.258
					l58.654,15.794c0,0,68.381,10.595,107.519,0c39.138-10.595,39.138-10.595,39.138-10.595l88.442-27.534l13.891,39.257
					c3.526,9.966-0.017,21.031-8.636,27.156c-7.652,5.437-16.621,11.412-22.337,13.914c-11.647,5.095-268.302,1.61-268.302,1.61
					L1651.062,2011.652z"/>
				
					<linearGradient id="SVGID_00000031921219394484539970000017261097665009080751_" gradientUnits="userSpaceOnUse" x1="2428.2488" y1="-484.4155" x2="2137.4063" y2="-181.822" gradientTransform="matrix(0.7808 -0.6248 0.6248 0.7808 315.2207 3172.542)">
					<stop  offset="0" style="stop-color:#09005D"/>
					<stop  offset="1" style="stop-color:#1A0F91"/>
				</linearGradient>
				<path style="fill:url(#SVGID_00000031921219394484539970000017261097665009080751_);" d="M1739.245,1508.949
					c-12.213-1.487-17.126-16.576-8.82-25.652c26.812-29.297,77.424-61.804,149.529-11.924
					c81.223,56.188,125.168,81.609,145.121,76.275c13.103-3.503,24.496,9.458,18.308,21.526
					c-4.576,8.923-13.891,18.243-31.103,26.736C1879.508,1661.425,1810.879,1517.67,1739.245,1508.949z"/>
			</g>
			<g>
				
					<linearGradient id="SVGID_00000003819975193919457360000013646003987277610401_" gradientUnits="userSpaceOnUse" x1="1726.24" y1="1461.984" x2="1716.1038" y2="1695.1116">
					<stop  offset="0" style="stop-color:#09005D"/>
					<stop  offset="1" style="stop-color:#1A0F91"/>
				</linearGradient>
				<path style="fill:url(#SVGID_00000003819975193919457360000013646003987277610401_);" d="M1819.177,2033.521
					c-0.179,0.009-0.358,0.014-0.537,0.013l-233.602-0.255c-5.775-0.005-10.451-4.691-10.445-10.465
					c0.006-5.777,4.709-10.549,10.468-10.445l233.602,0.255c5.774,0.005,10.451,4.691,10.445,10.466
					C1829.101,2028.684,1824.701,2033.248,1819.177,2033.521z"/>
				
					<linearGradient id="SVGID_00000163760387630449924680000010385823366925782425_" gradientUnits="userSpaceOnUse" x1="1279.8087" y1="1737.4722" x2="1607.5371" y2="2004.3849">
					<stop  offset="0" style="stop-color:#09005D"/>
					<stop  offset="1" style="stop-color:#1A0F91"/>
				</linearGradient>
				<path style="fill:url(#SVGID_00000163760387630449924680000010385823366925782425_);" d="M1375.04,1821.425h194.545
					c14.351,0,27.414,8.282,33.536,21.263l89.938,190.709h-241.768c-9.248,0-17.558-5.651-20.957-14.253l-69.743-176.472
					C1356.561,1832.475,1364.076,1821.425,1375.04,1821.425z"/>
				<path style="fill:#91B3FA;" d="M1512.099,1919.208c4.216,13.098,1.101,25.818-6.956,28.412
					c-8.058,2.594-18.008-5.922-22.224-19.02c-4.216-13.098-1.101-25.818,6.956-28.412
					C1497.933,1897.594,1507.883,1906.109,1512.099,1919.208z"/>
			</g>
		</g>
		<g>
			<path style="fill:#91B3FA;" d="M2408.752,789.839l-98.174,78.389c-7.635,6.097-11.781,15.56-11.088,25.306l8.922,125.315
				c1.746,24.541-25.405,40.432-45.947,26.89l-104.89-69.143c-8.16-5.378-18.44-6.398-27.493-2.725l-116.426,47.208
				c-22.798,9.246-46.304-11.667-39.775-35.388l33.349-121.125c2.592-9.419,0.385-19.511-5.906-26.989l-80.875-96.138
				c-15.837-18.827-3.212-47.643,21.364-48.762l125.501-5.716c9.761-0.444,18.677-5.663,23.845-13.955l66.44-106.625
				c13.014-20.882,44.32-17.778,52.978,5.251l44.218,117.593c3.44,9.145,11.157,16.012,20.641,18.363l121.938,30.242
				C2421.255,743.751,2427.979,774.485,2408.752,789.839z"/>
			
				<linearGradient id="SVGID_00000181784995096137370780000011080771187030106007_" gradientUnits="userSpaceOnUse" x1="2396.1772" y1="182.5091" x2="1909.6514" y2="1040.6855">
				<stop  offset="0" style="stop-color:#FF928E"/>
				<stop  offset="1" style="stop-color:#FE7062"/>
			</linearGradient>
			<path style="fill:url(#SVGID_00000181784995096137370780000011080771187030106007_);" d="M2164.666,557.388
				c-0.214,2.473-4.933,5.253-7.256,8.979l-66.344,106.631c-5.169,8.291-14.035,13.516-23.797,13.959l-125.479,5.719
				c-24.575,1.117-37.189,29.937-21.351,48.763l80.881,96.14c6.29,7.476,8.5,17.569,5.908,26.988l-33.347,121.127
				c-6.529,23.718,15.869,44.535,38.668,35.29l116.139-47.184L2164.666,557.388z"/>
			<path style="opacity:0.77;fill:#FFFFFF;" d="M2132.245,944.893c-6.572,0.186-13.012,1.471-19.151,3.814l-76.659,29.235
				c-8.058,3.074-16.987,1.339-23.313-4.531c-6.32-5.862-8.713-14.637-6.256-22.899l23.421-78.635
				c5.487-18.42,1.56-38.354-10.503-53.32l-51.501-63.875c-5.411-6.709-6.521-15.739-2.9-23.565
				c3.635-7.823,11.238-12.814,19.854-13.03l41.91-1.034l0.158,6.375l-41.91,1.035c-6.274,0.153-11.573,3.683-14.224,9.337
				c-2.632,5.69-1.858,11.997,2.079,16.88l51.5,63.874c13.385,16.604,17.74,38.713,11.653,59.146l-23.418,78.634
				c-1.79,6.008-0.117,12.139,4.479,16.405c4.594,4.265,10.833,5.475,16.694,3.24l76.659-29.235
				c6.808-2.597,13.956-4.021,21.239-4.23L2132.245,944.893z"/>
		</g>
		<g>
			<g>
				
					<linearGradient id="SVGID_00000075126840708203790130000002583754064308843198_" gradientUnits="userSpaceOnUse" x1="1147.0944" y1="1468.3881" x2="1560.731" y2="1940.7167">
					<stop  offset="0" style="stop-color:#4F52FF"/>
					<stop  offset="1" style="stop-color:#4042E2"/>
				</linearGradient>
				<path style="fill:url(#SVGID_00000075126840708203790130000002583754064308843198_);" d="M1508.715,1763.057h-371.9
					c-1.954,0-3.538-1.584-3.538-3.538v-185.106c0-1.954,1.584-3.538,3.538-3.538h368.362c1.954,0,3.538,1.584,3.538,3.538V1763.057
					z"/>
				
					<linearGradient id="SVGID_00000057143329595141475790000018012323531409217947_" gradientUnits="userSpaceOnUse" x1="1196.8975" y1="1432.5415" x2="1602.5109" y2="1895.7085">
					<stop  offset="0" style="stop-color:#4F52FF"/>
					<stop  offset="1" style="stop-color:#4042E2"/>
				</linearGradient>
				<path style="fill:url(#SVGID_00000057143329595141475790000018012323531409217947_);" d="M1449.899,1763.057l57.345,32.904
					c2.093,2.136,5.711,0.476,5.455-2.504l-3.983-46.468L1449.899,1763.057z"/>
			</g>
			<g>
				<path style="fill:#91B3FA;" d="M1489.641,1750.144h-342.599c-1.954,0-3.538-1.584-3.538-3.538v-160.697
					c0-1.954,1.584-3.538,3.538-3.538h343.2c1.954,0,3.538,1.584,3.538,3.538v160.095
					C1493.78,1748.291,1491.927,1750.144,1489.641,1750.144z"/>
			</g>
			<g>
				<path style="opacity:0.59;fill:#FFFFFF;" d="M1464.683,1723.171h-292.082c-2.029,0-3.675-1.645-3.675-3.675v-18.129
					c0-2.029,1.645-3.675,3.675-3.675h292.082c2.029,0,3.675,1.645,3.675,3.675v18.129
					C1468.358,1721.526,1466.712,1723.171,1464.683,1723.171z"/>
				<path style="opacity:0.59;fill:#FFFFFF;" d="M1381.336,1634.823h-207.42c-2.029,0-3.675-1.645-3.675-3.675v-18.129
					c0-2.029,1.645-3.675,3.675-3.675h207.42c2.029,0,3.675,1.645,3.675,3.675v18.129
					C1385.011,1633.178,1383.365,1634.823,1381.336,1634.823z"/>
				<path style="opacity:0.59;fill:#FFFFFF;" d="M1340.412,1679.388h-167.811c-2.029,0-3.675-1.645-3.675-3.675v-18.129
					c0-2.029,1.645-3.675,3.675-3.675h167.811c2.029,0,3.675,1.645,3.675,3.675v18.129
					C1344.087,1677.743,1342.442,1679.388,1340.412,1679.388z"/>
			</g>
		</g>
	</g>
</g>
</svg>